<?xml version="1.0" encoding="utf-8"?>
<!-- Generator: Adobe Illustrator 20.1.0, SVG Export Plug-In . SVG Version: 6.00 Build 0)  -->
<svg version="1.1" id="Layer_1" xmlns="http://www.w3.org/2000/svg" xmlns:xlink="http://www.w3.org/1999/xlink" x="0px" y="0px"
	 viewBox="0 0 781.3 354" style="enable-background:new 0 0 781.3 354;" xml:space="preserve">
<style type="text/css">
	.st0{fill:none;stroke:#0071BC;stroke-width:2.5;stroke-miterlimit:10;}
	.st1{fill:none;stroke:#0071BC;stroke-width:2;stroke-miterlimit:10;}
</style>
<rect x="29.6" y="246.3" class="st0" width="721.2" height="21.2"/>
<rect x="3.3" y="246.3" class="st0" width="26.3" height="105.1"/>
<rect x="751.2" y="245.9" class="st0" width="26.3" height="105.1"/>
<line class="st0" x1="29.6" y1="335.6" x2="234.8" y2="335.6"/>
<path class="st0" d="M234.8,335.6l51.4-68.1L234.8,335.6z"/>
<line class="st0" x1="750.8" y1="335.6" x2="545.6" y2="335.6"/>
<path class="st0" d="M545.6,335.6l-51.4-68.1L545.6,335.6z"/>
<path class="st0" d="M114.2,301.6h83.6H114.2z"/>
<path class="st0" d="M114.2,301.6h83.6H114.2z"/>
<path class="st0" d="M606.4,298.8H690H606.4z"/>
<path class="st0" d="M606.4,298.8H690H606.4z"/>
<path class="st0" d="M526.5,191.8H262.1c-6.6,0-12-5.4-12-12V17.5c0-6.6,5.4-12,12-12h264.4c6.6,0,12,5.4,12,12v162.3
	C538.5,186.4,533.1,191.8,526.5,191.8z"/>
<rect x="297" y="234.9" class="st0" width="189.7" height="11"/>
<rect x="306.7" y="229.7" class="st0" width="12.3" height="4.8"/>
<rect x="318.7" y="229.7" class="st0" width="12.3" height="4.8"/>
<rect x="331.7" y="229.7" class="st0" width="12.3" height="4.8"/>
<rect x="344.4" y="229.7" class="st0" width="55" height="4.8"/>
<rect x="399.7" y="229.7" class="st0" width="12.3" height="4.8"/>
<rect x="412.7" y="229.7" class="st0" width="12.3" height="4.8"/>
<rect x="442.7" y="229.7" class="st0" width="12.3" height="4.8"/>
<rect x="454.7" y="229.7" class="st0" width="12.3" height="4.8"/>
<rect x="467.7" y="229.7" class="st0" width="12.3" height="4.8"/>
<path class="st1" d="M515.1,160.1H275.3c-2.7,0-5-2.2-5-5V27.4c0-2.7,2.2-5,5-5h239.7c2.7,0,5,2.2,5,5v127.7
	C520,157.9,517.8,160.1,515.1,160.1z"/>
<path class="st1" d="M398.1,177.6h-31.2c-0.9,0-1.7-0.8-1.7-1.7l0,0c0-0.9,0.8-1.7,1.7-1.7h31.2c0.9,0,1.7,0.8,1.7,1.7l0,0
	C399.8,176.8,399.1,177.6,398.1,177.6z"/>
<circle class="st1" cx="412.6" cy="175.4" r="3.3"/>
<path class="st1" d="M391.1,109.4c0,1.8,0.4,2.6,2.4,2.4c4.2-0.3,8.3,0.6,12.2,2.2c6.4,2.6,8.1,0.7,9.1,0.3c0,0,0.1,0,3.9-1.7
	c-0.1,0.1-7.5,8.3-9.1,11c-0.1,0.2-0.4,0.7-1,0.9c-0.5,0.1-1.1-0.1-1.7-0.5c-5.6-3.5-11.8-4.6-18.4-4.4c-4.9,0.2-6.2,3.6-12.2,3.4
	c-1.3,0-2.4-0.2-3.1-0.3c-2.9-1.1-3.5-1.6-3.4-1.9c0.1-0.7,4,0.4,7.5-1.8c1.5-0.9,2.4-2.1,2.7-2.5c0.4-0.5,1.2-1.7,1.7-3.4
	c0.2-0.9,0.4-1.6,0.4-2.1c0-3.8-0.1-7.7,0.3-11.5c0.2-1.4-0.5-1.8-1.8-1.4c-1.3,0.4-2.4,1-3.5,1.9c-0.6,0.4-1,0.9-1.5,1.5
	c-1.1,1.1-1.4,1.6-1.5,1.6c-0.2-0.1,0.5-2.1,1.4-3.9c2.2-4.3,5.6-4.5,6.9-8.3c0.3-0.8,0.4-1.6,0.4-2c-0.3,3.3,0.1-6.7,0.1-10
	c0-3.8-2.2-5.6-6-5c-1.3,0.2-2.3,0.4-2.9,0.6c-1.7,0.6-2.9,1.4-3.7,2c0.7-2,1.7-3.3,2.3-4c3.3-3.7,9.1-6.2,12-4.3
	c0.9,0.6,1.2,1.3,2.2,1.4c0.9,0.1,1.3-0.5,3.9-1.6c0.8-0.4,1.2-0.6,1.6-0.6c1.3-0.2,2.6,0.1,3.9,1c2.2,1.5,4.5,2.5,6.8,2.3
	c1.4-0.1,3.5-0.4,4-1.6c0.4-1.1-0.7-2.3-0.6-2.4c0.2-0.1,2.1,1.4,2.1,3.6c0,1.4-0.7,2.3-1.2,3.1c-0.9,1.3-2.3,2.3-4,3
	c-1.3,0.5-2.7,0.8-4,0.9c-1.7,0.1-2.8,0.2-4.1-0.3c-1.1-0.5-1.4-1.1-2-1c-1,0.3-1.2,2.8-1.3,3.4C391,89.4,391.3,99.4,391.1,109.4z"
	/>
<line class="st1" x1="373.2" y1="191.8" x2="369.3" y2="229.7"/>
<line class="st1" x1="405.3" y1="190.8" x2="409.2" y2="228.7"/>
<rect x="64.1" y="227" class="st1" width="100.7" height="19.2"/>
<rect x="74.1" y="207.6" class="st1" width="85.8" height="19.2"/>
<rect x="71.1" y="188.6" class="st1" width="85.8" height="19.2"/>
<g>
	<path class="st1" d="M525.4,245.5c0-4.7,7.2-8.5,16-8.5"/>
	<path class="st1" d="M557.4,245.5c0-4.7-7.2-8.5-16-8.5"/>
</g>
<path class="st1" d="M693.8,246.3h-25.3c-2.8,0-5-2.3-5-5v-32.6c0-2.8,2.3-5,5-5h25.3c2.8,0,5,2.3,5,5v32.6
	C698.8,244,696.6,246.3,693.8,246.3z"/>
<path class="st1" d="M706.5,235h-2.7c-2.8,0-5-2.3-5-5v-10.7c0-2.8,2.3-5,5-5h2.7c2.8,0,5,2.3,5,5V230
	C711.5,232.8,709.3,235,706.5,235z"/>
</svg>
