<?xml version="1.0" encoding="utf-8"?>
<!-- Generator: Adobe Illustrator 20.1.0, SVG Export Plug-In . SVG Version: 6.00 Build 0)  -->
<svg version="1.1" id="Layer_1" xmlns="http://www.w3.org/2000/svg" xmlns:xlink="http://www.w3.org/1999/xlink" x="0px" y="0px"
	 viewBox="0 0 809.2 205.3" style="enable-background:new 0 0 809.2 205.3;" xml:space="preserve">
<style type="text/css">
	.st0{fill:#006837;}
	.st1{fill:none;stroke:#006837;stroke-miterlimit:10;}
	.st2{fill:none;stroke:#006837;stroke-width:2;stroke-miterlimit:10;}
	.st3{fill:#207B50;}
</style>
<g>
	<path class="st0" d="M227.1,40.1v146.7H7.4V40.1H227.1 M229.1,38.1H5.4v150.7h223.7V38.1L229.1,38.1z"/>
</g>
<g>
	<path class="st0" d="M206.3,53.1v120.4H25.6V53.1H206.3 M208.3,51.1H23.6v124.4h184.7V51.1L208.3,51.1z"/>
</g>
<g>
	<path class="st0" d="M113.3,3.9c1.3,0,2.3,1,2.3,2.3s-1,2.3-2.3,2.3c-1.3,0-2.3-1-2.3-2.3S112,3.9,113.3,3.9 M113.3,2.9
		c-1.8,0-3.3,1.5-3.3,3.3s1.5,3.3,3.3,3.3s3.3-1.5,3.3-3.3S115.1,2.9,113.3,2.9L113.3,2.9z"/>
</g>
<g>
	<line class="st1" x1="110" y1="6.2" x2="27.8" y2="39.1"/>
</g>
<g>
	<line class="st1" x1="115.8" y1="6.2" x2="198" y2="39.1"/>
</g>
<path class="st2" d="M114.3,124.7c0,1.7,0.4,2.4,2.2,2.3c4-0.3,7.8,0.5,11.5,2.1c6,2.5,7.6,0.7,8.6,0.3c0,0,0.1,0,3.7-1.6
	c-0.1,0.1-7,7.9-8.5,10.4c-0.1,0.2-0.4,0.7-0.9,0.8c-0.5,0.1-1-0.1-1.6-0.5c-5.3-3.3-11.1-4.4-17.3-4.1c-4.6,0.2-5.8,3.4-11.5,3.2
	c-1.2,0-2.2-0.2-2.9-0.3c-2.7-1-3.3-1.5-3.2-1.8c0.1-0.7,3.8,0.4,7.1-1.7c1.4-0.9,2.3-2,2.6-2.4c0.4-0.5,1.1-1.6,1.6-3.2
	c0.2-0.8,0.3-1.5,0.3-2c0-3.6-0.1-7.2,0.3-10.8c0.1-1.3-0.5-1.7-1.7-1.3c-1.2,0.4-2.3,1-3.3,1.7c-0.6,0.4-1,0.9-1.4,1.4
	c-1,1-1.3,1.5-1.4,1.5c-0.2-0.1,0.4-2,1.3-3.7c2.1-4,5.3-4.3,6.5-7.8c0.3-0.8,0.3-1.5,0.4-1.8c-0.3,3.1,0.1-6.3,0.1-9.4
	c0-3.6-2.1-5.3-5.6-4.7c-1.2,0.2-2.2,0.4-2.8,0.6c-1.6,0.6-2.8,1.4-3.5,1.9c0.7-1.9,1.6-3.1,2.2-3.7c3.1-3.5,8.6-5.8,11.3-4
	c0.8,0.5,1.1,1.3,2,1.3c0.8,0.1,1.2-0.4,3.7-1.6c0.8-0.3,1.2-0.5,1.5-0.6c1.2-0.2,2.5,0.1,3.6,0.9c2.1,1.4,4.2,2.4,6.4,2.1
	c1.3-0.1,3.3-0.4,3.8-1.5c0.4-1-0.7-2.2-0.5-2.3c0.2-0.1,1.9,1.4,2,3.4c0,1.3-0.7,2.2-1.2,3c-0.9,1.3-2.2,2.2-3.8,2.8
	c-1.2,0.5-2.5,0.8-3.8,0.9c-1.6,0.1-2.7,0.2-3.8-0.3c-1-0.5-1.4-1-1.9-0.9c-1,0.2-1.1,2.6-1.2,3.2
	C114.2,105.9,114.5,115.3,114.3,124.7z"/>
<path class="st2" d="M450.4,154.4H394c-2.8,0-5-2.3-5-5V68.1c0-2.8,2.3-5,5-5h56.3c2.8,0,5,2.3,5,5v81.4
	C455.4,152.2,453.1,154.4,450.4,154.4z"/>
<rect x="411.4" y="60.1" class="st2" width="20.7" height="6.7"/>
<g>
	<g>
		<path class="st0" d="M408.8,76.6c-4.2,2.2-7.5,5.5-9.5,9.9c-0.9,1.9-2.7,5.9-0.5,7.4c2.9,2,9.6-2.3,12.4-3.4
			c6.2-2.5,12.3-5,18.4-7.7c-0.5-0.5-1-1-1.5-1.5c-5.3,9.7-17.6,14.3-18.9,26.2c-0.1,0.9,1,1.3,1.7,1c9.2-5,18.2-10.3,27.1-15.9
			c-0.5-0.5-1-1-1.5-1.5c-4.9,7-9.9,14-14.8,21c-2.5,3.5-5,7-7.4,10.5c-1.1,1.6-2.7,3.6-1.7,5.7c1.6,3.6,6.7,1.6,9.3,0.8
			c6.6-2,12.8-5,18.6-8.7c-0.5-0.6-0.9-1.2-1.4-1.8c-3.8,4.2-7.5,8.3-11.3,12.5c-2.3,2.5-4.8,4.7-4.5,8.3c0.1,0.9,0.9,1.3,1.7,1
			c1.7-0.7,3.3-1.5,5-2.2c1.3-0.6,0.2-2.5-1.1-1.9c-1.7,0.7-3.3,1.5-5,2.2c0.6,0.3,1.1,0.6,1.7,1c-0.3-3.8,5.5-8.5,7.8-11.1
			c2.4-2.7,4.9-5.4,7.3-8.1c0.8-0.9-0.2-2.5-1.4-1.8c-4.4,2.8-9.1,5.3-14,7.1c-2,0.8-5.1,2.3-7.3,2.3c-0.6,0.1-1.2,0.2-1.8,0.2
			c-0.2-1.2-0.4-2.4-0.5-3.5c0.3-1.3,2.1-3,2.9-4c6.7-9.4,13.3-18.9,20-28.3c0.7-0.9-0.6-2.1-1.5-1.5c-8.9,5.6-17.9,10.9-27.1,15.9
			c0.6,0.3,1.1,0.6,1.7,1c1.2-11.1,13.7-16,18.6-25.1c0.6-1.1-0.5-2-1.5-1.5c-7.4,3.2-14.9,6.3-22.4,9.3c-0.7,0.3-3.8,2.1-4.6,1.8
			c-2.3-1-0.3-4.4,0.4-5.6c1.8-3.4,4.6-5.9,8-7.7C411.2,77.9,410.1,76,408.8,76.6L408.8,76.6z"/>
	</g>
</g>
<rect x="617.7" y="24.4" class="st2" width="188" height="98"/>
<rect x="670" y="122.4" class="st2" width="77.3" height="8"/>
<rect x="707" y="130.4" class="st2" width="5.7" height="70.3"/>
<line class="st2" x1="686.4" y1="130.4" x2="647.7" y2="200.8"/>
<line class="st2" x1="647.7" y1="200.8" x2="655" y2="200.8"/>
<line class="st2" x1="655" y1="200.8" x2="691.7" y2="130.4"/>
<line class="st2" x1="734" y1="130.4" x2="772.7" y2="200.8"/>
<line class="st2" x1="772.7" y1="200.8" x2="765.4" y2="200.8"/>
<line class="st2" x1="765.4" y1="200.8" x2="728.7" y2="130.4"/>
<rect x="694" y="18.1" class="st2" width="29.3" height="6.3"/>
<polygon class="st1" points="660.1,69.6 653.6,75.7 652.7,66.8 645,62.4 653.2,58.9 654.9,50.1 660.8,56.9 669.7,55.8 665.1,63.5 
	668.8,71.6 "/>
<polygon class="st1" points="773.4,57.3 761.3,67 747,61.4 744.6,46.2 756.6,36.5 771,42.1 "/>
<g>
	<g>
		<g>
			<g>
				<g>
					<path class="st3" d="M735,86.3c-0.1,0-0.3,0.1-0.2,0.2l0.3,0L735,86.3z"/>
					<path class="st3" d="M734.6,87.1c0.2,0.1,0.5,0.2,0.8,0c-0.3-0.1-0.2-0.1-0.6-0.2c-0.1-0.1,0.1-0.2,0.2-0.2
						c-0.1,0,0-0.2-0.2-0.2c-0.2,0.2-0.2,0.4,0.1,0.5C734.8,87.1,734.7,87.1,734.6,87.1z"/>
					<path class="st3" d="M732.1,96.2L732.1,96.2C732.2,96.2,732.1,96.2,732.1,96.2z"/>
					<path class="st3" d="M727.9,100.3C727.9,100.2,727.9,100.2,727.9,100.3C727.9,100.2,727.9,100.2,727.9,100.3z"/>
					<path class="st3" d="M726.9,100.5C726.9,100.5,726.9,100.5,726.9,100.5C726.9,100.5,726.9,100.5,726.9,100.5z"/>
					<path class="st3" d="M732.1,96.2l-0.2,0.1C732,96.4,732,96.3,732.1,96.2z"/>
					<path class="st3" d="M735.6,88.4C735.6,88.4,735.5,88.3,735.6,88.4C735.5,88.3,735.5,88.4,735.6,88.4L735.6,88.4z"/>
					<path class="st3" d="M733.1,93.8L733.1,93.8c0-0.1,0-0.1-0.1-0.1L733.1,93.8z"/>
					<path class="st3" d="M733.7,92c0,0,0.2,0.1,0.4,0.2c-0.1-0.1-0.2-0.1-0.2-0.1C733.8,92,733.8,92,733.7,92z"/>
					<path class="st3" d="M734.5,88.9L734.5,88.9C734.5,88.9,734.5,88.9,734.5,88.9z"/>
					<path class="st3" d="M732.4,95.1C732.4,95,732.4,95,732.4,95.1C732.4,95,732.4,95,732.4,95.1z"/>
					<path class="st3" d="M685.7,85.5C685.8,85.5,685.8,85.4,685.7,85.5C685.8,85.4,685.7,85.4,685.7,85.5z"/>
					<polygon class="st3" points="687.2,83 687.3,83 687.4,83.1 					"/>
					<path class="st3" d="M725.1,101L725.1,101C725.2,100.9,725.2,101,725.1,101z"/>
					<path class="st3" d="M708.8,101.9c0.1,0.3-0.4,0.2-0.2,0.6C708.6,102.4,709,102.1,708.8,101.9z"/>
					<path class="st3" d="M735.6,88.5C735.6,88.5,735.6,88.5,735.6,88.5C735.6,88.5,735.6,88.5,735.6,88.5z"/>
					<path class="st3" d="M708.6,102.5L708.6,102.5L708.6,102.5C708.7,102.5,708.6,102.5,708.6,102.5z"/>
					<path class="st3" d="M721.3,102.4c0,0,0,0.1,0.1,0.1C721.4,102.5,721.3,102.4,721.3,102.4z"/>
					<path class="st3" d="M724.4,101.9L724.4,101.9C724.3,101.9,724.4,101.9,724.4,101.9z"/>
					<path class="st3" d="M719.8,103c0,0-0.1-0.1-0.1,0C719.6,103,719.7,103,719.8,103C719.7,103,719.7,103,719.8,103z"/>
					<polygon class="st3" points="718.1,103.2 718.1,103.2 718.1,103.2 					"/>
					<path class="st3" d="M687.3,91c0.1-0.1,0.1-0.1,0.2-0.2C687.4,91,687.2,90.8,687.3,91z"/>
					<path class="st3" d="M735.4,88.4c0.1,0,0.1,0,0.1,0l0-0.1C735.5,88.4,735.5,88.4,735.4,88.4z"/>
					<path class="st3" d="M719.9,105.2l-0.3,0C719.7,105.2,719.8,105.2,719.9,105.2z"/>
					<path class="st3" d="M696.8,100.2L696.8,100.2C696.7,100.2,696.8,100.2,696.8,100.2z"/>
					<path class="st3" d="M718.8,105.3c-0.1-0.1-0.1-0.1-0.2-0.2c0,0,0,0,0,0.1L718.8,105.3z"/>
					<path class="st3" d="M687.5,90.9L687.5,90.9L687.5,90.9z"/>
					<path class="st3" d="M686.2,89.2c0.1,0.3,0.4,0,0.6,0c0.2,0.3-0.2,0.2-0.3,0.4c0.2,0.2,0.5,0.2,0.6,0.4c-0.1,0-0.1,0.1-0.1,0.1
						c0.3,0.1,0.3,0.6,0.7,0.7c0,0,0,0.1-0.1,0.1c0.1-0.1,0.3-0.2,0.4-0.3c0.1,0.1,0.3,0.1,0.1,0.3c0-0.1-0.1,0-0.2,0l0.1,0.1
						c-0.3,0.3-0.2-0.1-0.4,0c0.2,0.2,0.6,0.3,0.6,0.5c-0.3,0.2-0.3-0.4-0.5,0l0-0.3c-0.4,0.5,0-0.2-0.5,0.3
						c0.1,0.4,0.4,0.3,0.5,0.7c0.2,0,0.2-0.2,0.4-0.2c0.6,0.3-0.5,0.8,0.1,1c0.3,0,0.6-0.2,0.6,0.1l-0.4,0.1
						c0.2,0.3,0.6-0.1,0.6,0.4c-0.2,0-0.3-0.2-0.3-0.1c-0.1,0.4,0.3,0,0.4,0.2l-0.3,0.2c0.3,0.3,0.8,0.5,1.1,0.8
						c-0.1,0-0.2,0.1-0.2,0.2c0.5,0.3,0.8,1,1.1,1.5l0.4-0.1c0,0,0,0.2-0.1,0.2c0.1,0.2,0.1-0.1,0.3-0.1c0.1,0.1,0,0.2-0.1,0.2
						c0.5,0.1,1.2,0.3,1.3,0.8l-0.1,0c0.2,0.3,0.7-0.3,0.7,0.1l-0.1,0c0.5,0.5,1.2,0.7,1.4,1.4c0.3-0.3,0.5,0.5,0.8,0
						c0.2,0.4,0,0.5,0.4,0.9c0.1,0.1,0.4-0.2,0.6-0.2l-0.1,0.3l0.4-0.2l-0.1,0.4l0.2,0c-0.1,0-0.1-0.2,0-0.3c0.3,0,0.5,0.5,0.4,0.6
						l0.7,0c-0.1,0.1-0.2,0.1-0.3,0.1c0.4-0.1-0.1,0.3,0.3,0.2c0-0.1,0.1-0.2,0.1-0.2c0.1,0.2,0.4,0.4,0.6,0.4l-0.1,0.2
						c0.4,0.2,0.9,0.3,1.4,0.5c-0.1-0.2,0-0.5,0.2-0.5l-0.1,0.3c0.2-0.2-0.1-0.2,0.2-0.3c0.2,0.1,0,0.4-0.2,0.5l0.3,0
						c0,0.1-0.1,0.1-0.1,0.2c0.2-0.2,0.3,0.5,0.5,0.2l0,0.1c0.5,0.2,0.7,0.2,1.1,0.3c0.1-0.3,0.2-0.2,0.4-0.3
						c0.3,0.2,0.5,0.5,0.9,0.6c0.3-0.1,0.1-0.2,0.3-0.3c-0.1,0.3,0.3,0.3,0.1,0.5c0.4,0.1,0.6,0.1,1.1,0.1c0-0.1-0.1-0.2,0-0.3
						c0.1,0,0.2,0.2,0.1,0.3l0,0c0.7-0.2,1.2,1.1,1.8,0.7l0,0l0.6-0.1c0.2,0.1-0.2,0.2-0.1,0.3c0.6-0.3,0.8,0.3,1.4,0.1
						c0.2,0.8,1.2,0.2,1.6,0.8l0-0.2c0.2-0.1,0.1,0.1,0.2,0.2c0-0.1-0.1-0.2,0-0.3c1.1,0,2.1,0.6,3.2,0.9c0.4,0.1,0.3-0.9,0.8-0.4
						l-0.2,0.3c0.8-0.3,1.7,0.1,2.5-0.2c0,0.1-0.1,0.2-0.1,0.2c0.2,0.2,0.6,0,0.6-0.2c0.1,0,0,0.2,0.1,0.3c0.2,0.1,0.4-0.3,0.5-0.1
						c0,0,0,0.1-0.1,0.1c0.1-0.1,0.5,0,0.4-0.3c0.3,0.1,0.6-0.2,0.8,0c0.1-0.3,0.5,0.1,0.5-0.3c0,0.5,0.6,0.3,0.7,0.1
						c0,0.1,0.2,0.1,0.1,0.3c0.2,0,0.4-0.1,0.3-0.4c0.5,0.5,0.7-0.6,1.1,0.1c0.6-0.3,1.1-0.7,1.7-0.9c0.1,0.4-0.6,0.2-0.5,0.6
						c0.5-0.3,0.7-0.8,1.2-0.8c0.2,0,0,0.2,0,0.3c0.5-0.3,1-0.3,1.4-0.7c0,0,0,0.1-0.1,0.2c0.1,0,0.2,0,0.1-0.2l-0.1,0.1
						c-0.2-0.2,0.1-0.7,0.1-0.9c0.1,0.6,0.5-0.1,0.5,0.7c0-0.1,0.1-0.2,0-0.3c0.1,0,0.2,0.1,0.1,0.2c0.3-0.2,0.1-0.4,0.4-0.5
						c0,0.1,0,0.2,0,0.3c0.1-0.2,0.1-0.5,0.4-0.5c0,0.1,0.1,0.1,0,0.1c0.4-0.2,0.4-0.8,0.9-0.9c0.1,0.4,0.2,0,0.4,0.3l0.2-0.2
						l-0.2-0.1c0.2-0.1,0.2-0.5,0.4-0.5l-0.1,0.2l0.3-0.3l-0.3,0c0.1-0.3-0.3-0.4,0-0.5c0,0.1,0.2-0.1,0.4,0v0c0-0.2,0-0.3,0.2-0.4
						c0.1,0.1,0.2,0.3,0.3,0.4c-0.1-0.3,0.4-0.4,0.3-0.7c0,0.1,0.1,0.2,0.2,0.3l-0.1-0.3c0.1,0,0.2,0,0.3,0.1c0.3-0.2-0.4-0.3,0-0.4
						c0,0,0,0.1,0,0.1c0.4-0.2,0.4-0.6,0.8-0.8c0.3,0.2-0.2,0.3,0.2,0.4c0.3-0.4,0.4-1.1,0.8-1.4l-0.1,0c-0.4-0.4,0.4-0.1,0.4-0.5
						c0,0.1,0.2,0.2,0.1,0.2c0.3-0.2,0.3-0.6,0.5-1.1l0.1,0.1c0.2-0.1,0.3-0.4,0.5-0.5c-0.1-0.1,0-0.2-0.2-0.3
						c1-0.2,0.3-1.3,1.1-1.5c0,0.1,0,0.2,0.1,0.2l0.1-0.5c-0.2-0.1-0.2,0-0.4,0c-0.1-0.1-0.1-0.3-0.1-0.4c0.1,0.3,0.3,0.1,0.5,0.1
						c-0.1,0-0.1-0.1-0.2-0.1c0.5-0.1-0.4-0.2,0-0.4l0.1,0.1c0-0.1-0.1-0.3-0.1-0.4c0.3,0,0.1,0.2,0.3,0.3c0.1-0.2-0.4-0.5,0-0.6
						c0,0.1,0,0.2,0.1,0.3c0.4-0.1,0.3-0.1,0.4-0.3l0,0c0,0,0.2-0.3,0.2-0.3l-0.1,0.1c-0.6-0.4,0-0.5-0.4-1c0.3,0.4,0.2,0.1,0.5,0.2
						c0.1-0.1,0.2-0.2,0.3-0.1c-0.2-0.2,0.3-0.2-0.1-0.5c0.1,0,0-0.2,0.3-0.1c0-0.2-0.2,0-0.3,0c-0.3-0.4,0.5-0.7,0.1-1.2
						c-0.2-0.4-0.5-0.5-0.7-0.8c0.2-0.1,0.4,0.1,0.4,0.1c0.2-0.2,0.1-0.4,0-0.5c0.1,0,0.2,0,0.3-0.1c0-0.2-0.4-0.1-0.2-0.3
						c0.1,0,0.3,0,0.4,0.1c-0.1-0.2-0.3-0.3-0.4-0.5c0.2-0.1,0.3,0.1,0.4,0.1c-0.1-0.2-0.2-0.5-0.5-0.5l-0.1,0.1
						c0-0.1,0.2-0.1,0.3,0c0.2,0.1-0.1,0.3-0.1,0.3l-0.1-0.1c-0.6,0.2,0.1,0.5,0.1,0.8l-0.4-0.1l0.4,0.2c-0.1,0.1-0.3,0.1-0.4,0
						c-0.2,0.2,0.2,0.2-0.1,0.3c0,0-0.1,0-0.1,0l0.1,0.2c-0.1,0-0.3,0-0.2-0.1c-0.2,0.3,0.3,0.5,0,0.6l0,0c0.1,0.4,0.3,0,0.7,0.4
						c0,0-0.2,0-0.4,0.1c-0.2,0-0.4,0.1-0.4,0.1l0.3,0.1c0,0-0.1,0.1-0.2,0.1c0.2,0.2,0.1,0,0.3,0.1c-0.3,0.2,0.1,0.6-0.4,0.6
						c0.2,0.1,0.2-0.2,0.3,0.1c-0.5,0,0,0.3-0.2,0.4c-0.3-0.1-0.1-0.3-0.3-0.1c0.4,0.2-0.2,0.4-0.1,0.5c0.3,0.1,0.1,0.4,0.1,0.7
						c-0.1-0.1-0.4,0.4-0.6,0.6l-0.1,0c0.3,0.2,0.2,0.4,0.2,0.6c-0.2-0.1-0.3-0.2-0.3-0.3l-0.1,0.2c0.1,0.1,0.1,0.2,0.1,0.3
						l-0.2-0.2c-0.1,0.2,0.1,0.6-0.2,0.8c0.2,0.1,0.8,0.1,0.7,0.5c-0.1-0.1-0.3-0.2-0.4-0.3c0,0,0.1,0.1,0,0.2l-0.1-0.2
						c-0.2,0.1,0.1,0.2,0.1,0.2c-0.2-0.1-0.2,0-0.3-0.1c0,0,0.1,0,0.1-0.1c-0.1,0.1-0.3,0.2-0.4,0.1c0.1,0,0.2,0.1,0.2,0.2
						c-0.1,0.2-0.2,0-0.4,0c0.1,0.1-0.1,0.2,0.1,0.3c0,0.1-0.2,0-0.2,0c0,0.2-0.3,0.5,0,0.6l0,0c0,0,0,0,0,0l0,0l0,0
						c0,0.5-0.6,0.6-0.8,1l-0.1-0.1c-0.1,0.3-0.3,0.5-0.2,0.7c-0.1,0.1-0.3,0-0.3-0.1c-0.1,0.2,0,0.3-0.3,0.4c0-0.3-0.2-0.1,0-0.2
						c-0.2,0.1-0.4,0-0.4,0.4c-0.1-0.2-0.3-0.1-0.4,0l0.2,0c-0.1,0.1-0.2,0.2-0.3,0.2l-0.2-0.3c-0.6,0-0.2,1.1-0.9,0.8
						c0,0.3,0.3,0,0.4,0.2c-0.2,0.1-0.7-0.1-0.7-0.1c-0.3,0,0.1,0.6-0.3,0.7c0.1,0.1,0.3,0.3,0.2,0.5c-0.2,0.1-0.5-0.3-0.5-0.4
						c0,0,0.1,0,0.1,0c0-0.1,0.1-0.2-0.1-0.2l0,0.1c-0.2,0-0.4,0.1-0.5-0.1c-0.1,0.2,0,0.2,0.2,0.2c-0.3,0-0.4,0.3-0.7,0.3
						c0.1,0,0.2,0.1,0.1,0.2c-0.5,0.1-0.1,0.3-0.3,0.5c-0.2-0.1-0.2-0.4-0.3-0.1c-0.2,0-0.2-0.3-0.2-0.4c-0.1,0.3-0.5,0.1-0.7,0.1
						l0.1-0.1c0,0.1-0.1,0.1-0.2,0.1l0.2,0.2c-0.1,0-0.2,0-0.2-0.1c0,0.2,0.2,0.3,0.2,0.6c-0.2-0.1-0.3,0.3-0.4,0
						c0.4,0-0.2-0.3,0.1-0.4c0,0.1-0.1,0.1-0.2,0.1c0,0,0-0.1,0-0.1c-0.4-0.1,0,0.4-0.3,0.5c0-0.2-0.2-0.3-0.2-0.2
						c0.1,0,0.2,0.3,0.1,0.4c-0.3-0.1-0.2,0.2-0.3,0.2l0.1,0c0,0.2-0.1,0.2-0.2,0.3c-0.1-0.1,0.1-0.1,0-0.2
						c-0.1,0.4-0.5-0.2-0.6,0.1c-0.1-0.1-0.1-0.3-0.2-0.4c-0.2,0.3-0.3-0.1-0.6,0.1c0.1,0.2,0.1,0.1,0,0.4l0.4-0.3l-0.2,0.4
						c0.1,0,0.2-0.2,0.3-0.2c-0.1,0.2-0.1,0.2,0,0.3c-0.3-0.3-0.3,0.3-0.6,0.1l-0.2-0.6c-0.4-0.2-0.5,0.4-1,0.4l0.2,0.1
						c0,0.2-0.3,0.1-0.4,0.2c0-0.2-0.1-0.2-0.2-0.4c0,0.1-0.3,0-0.3,0.4l-0.2-0.2c-0.4,0-0.3,0.6-0.7,0.6c0.1-0.2-0.1-0.3,0.1-0.5
						c-0.1,0-0.2,0-0.2,0.1c-0.1-0.1-0.3,0.3-0.4,0.1c0,0.1,0,0.3-0.2,0.3c0,0,0-0.1,0-0.1c0,0.1-0.2,0.2-0.1,0.4
						c-0.4-0.6-1,0.1-1.3-0.4c-0.2,0.1-0.6,0.1-0.8,0.2c0-0.1,0-0.1,0-0.1c-0.3-0.2-0.2,0.6-0.6,0.4c-0.2-0.3,0.2-0.2,0.1-0.3
						c-0.1-0.6-0.4,0.1-0.7-0.3l0.1,0c-0.2-0.2-0.5,0.2-0.8,0.2c0,0,0-0.1,0-0.1c-0.2,0.3-0.6,0.4-0.9,0.5c0.1-0.2,0.1-0.1,0.1-0.4
						c-0.1,0,0,0.4-0.3,0.5c-0.1-0.1-0.3-0.3-0.3-0.6l0.2,0c-0.1-0.4-0.3,0-0.4-0.1l0-0.2c-0.4,0-0.4,0.4-0.8,0.3l0,0.1
						c-0.3,0.4-0.2-0.2-0.4,0l0-0.4c-0.2,0.1-0.6,0.3-0.8,0.3c0.2-0.3,0.5-0.4,0.7-0.5c-0.1,0-0.5,0-0.6,0.1c0.1,0,0.1-0.1,0.2,0
						c-0.2,0.3-0.5,0.4-0.8,0.4c0.2-0.7-0.7-0.3-0.8-0.9c-0.6,0.2-1-0.3-1.6-0.4c0.1,0.6-0.2,0-0.3,0.6c-0.1,0-0.2,0-0.2-0.1
						l-0.3-0.4c-0.1-0.2,0.2-0.1,0.2-0.2c-0.3-0.1-0.1-0.3-0.2-0.5c0,0.2-0.2,0.3-0.3,0.2l0.2,0.3c-0.5,0.2-0.2-0.6-0.7-0.4l0.2-0.2
						c-0.2,0.1-0.8-0.2-1.1,0.2c0-0.1,0-0.3,0.1-0.3c-0.5-0.2-1.3,0.2-1.6-0.2l0.1-0.1c-0.1,0-0.2,0.2-0.3,0c0-0.1,0.1-0.1,0-0.2
						c-0.1,0-0.3,0.2-0.4,0.1l0.2-0.1c-0.4-0.3-0.9,0.2-1.3,0.1c0.1-0.4-0.2-0.7-0.4-0.8l0-0.1c-0.5-0.2-1.1,0-1.6,0
						c-0.1-0.6-1-0.6-1.4-1.1c0,0.1-0.1,0.3-0.3,0.3c-0.1-0.1-0.4,0.1-0.3-0.2l0,0c0.1-0.4-0.2-0.4-0.4-0.5l-0.3,0.5
						c-0.1-0.9-1.4-0.4-1.3-1.1c-0.2,0.1-0.3,0-0.5,0l0.1-0.2c-0.3-0.2-0.4-0.4-0.8-0.5l0.2-0.1c-0.2-0.1-0.7,0.5-0.9,0.4l0.2-0.4
						c-0.4-0.2-0.5-0.8-1.1-0.7c0,0,0.1-0.1,0.2-0.1c-0.2-0.1-0.4-0.7-0.7-0.2c0.2-0.3-0.3-0.3-0.6-0.3l0.2-0.2
						c-0.4,0.1-0.4,0.2-0.7,0.1c0-0.1,0.1-0.2,0.1-0.1c-0.1-0.3-0.3,0.1-0.4-0.2l0.2-0.1c-0.1-0.2-0.2-0.1-0.4,0
						c-0.2,0-0.3-0.3-0.1-0.6c-0.1,0.1-0.4,0.1-0.4,0c0.1-0.1,0.1-0.1,0.2-0.1c-0.1-0.4-0.6-0.2-0.6-0.6c0.1-0.1,0.1-0.1,0.1-0.1
						c0.2,0.2,0.3,0.4,0.3,0.4c0.2-0.2,0.1-0.4,0.5-0.5c-0.3,0-0.8,0-0.9-0.2c0,0,0,0,0-0.1l0,0c0-0.1-0.1-0.1-0.1-0.1
						c0-0.1,0-0.1-0.1-0.2c0.1-0.2-0.1-0.3-0.1-0.4c-0.2,0.2-0.3,0-0.4,0.3c0,0,0,0,0.1,0.1c0,0,0,0,0.1,0l0,0
						c0.1,0.1,0.1,0.1,0.2,0.2c-0.2,0-0.3,0-0.3-0.2c-0.2,0.1-0.4,0.1-0.5,0.1c0.2-0.4,0.2-0.7,0.4-0.9c-0.3-0.2-0.6-0.6-1.1-0.6
						c-0.1-0.1,0.1-0.2,0.1-0.3c0.1,0,0.1,0.1,0.2,0.1c-0.2-0.1-0.4-0.5-0.7-0.4c0-0.3,0.4,0,0.1-0.3l0.1,0c0.1-0.4-0.2-0.6-0.6-0.8
						c-0.3-0.2-0.6-0.4-0.4-0.9c0,0.1,0,0.1-0.1,0.1c0-0.9-0.9-1.7-0.5-2.7c0.1-0.3-0.2-0.2-0.4-0.4l0.3-0.1l-0.4-0.2
						c-0.3-0.4,0.7-0.7,0.2-1.1l-0.2,0.1c0-0.2-0.1-0.5,0.1-0.5c0,0-0.2-0.1-0.1-0.1l0.2,0l-0.3-0.4c0.2-0.3,0.6,0.1,0.7-0.3
						c0-0.2-0.4-0.5-0.5-0.5c0,0.1-0.1,0.2-0.3,0.1l-0.1-0.2c-0.5-0.1-0.9-0.3-1.3,0.1l0.2,0.3l-0.2,0.1l0-0.3
						c-0.2,0.1-0.1,0.2,0.1,0.4c-0.1,0-0.2,0.1-0.3,0.1l0.4,0.3c-0.2,0-0.4-0.2-0.5,0c0.2,0.2,0.4-0.1,0.5,0.1
						c-0.2,0.1-0.4,0.1-0.2,0.3c-0.1,0-0.2,0-0.2-0.1c0.1,0.2,0,0.4,0.3,0.5c-0.3,0.2,0.1,0.5-0.4,0.5c0.1,0,0.4,0.3,0.4,0.4
						c-0.6-0.2,0,0.5-0.5,0.5c0.5,0.1,0.3,0.7,0.6,1c0,0-0.1,0-0.1-0.1c0,0.2-0.1,0.3-0.2,0.4c0.4-0.1,0.5,0.2,0.8,0.3
						c-0.3,0.3-0.5,0-0.8,0.1c0.3-0.1,0.4,0.3,0.6,0.2c-0.2,0.2-0.1,0.2-0.4,0.4c0.5-0.1,0.1,0.1,0.5,0.2c-0.2,0.3-0.4,0.2-0.2,0.4
						C686.4,89.4,686.2,89.2,686.2,89.2z M690.2,94.6L690.2,94.6c0,0-0.1-0.1-0.1-0.1C690.1,94.6,690.1,94.6,690.2,94.6z M690.5,95
						c0-0.1-0.1-0.1-0.1-0.2c0.1-0.1,0.1-0.1,0.2-0.1C690.5,94.8,690.5,94.9,690.5,95z M691.3,92.9c0.1,0,0.1,0.1,0,0.1
						C691.3,93.1,691.3,93,691.3,92.9l-0.1,0.1C691.2,93,691.3,93,691.3,92.9z"/>
					<path class="st3" d="M690.9,93.1C690.9,93.1,690.9,93.1,690.9,93.1C690.9,93.1,690.9,93.1,690.9,93.1L690.9,93.1L690.9,93.1z"
						/>
					<path class="st3" d="M732.2,96.2L732.2,96.2C732.2,96.2,732.2,96.2,732.2,96.2C732.2,96.2,732.2,96.2,732.2,96.2z"/>
					<polygon class="st3" points="696.2,100.1 696.2,100 696.2,100 					"/>
					<path class="st3" d="M734.4,94.1C734.4,94.1,734.5,94.1,734.4,94.1C734.5,94.1,734.4,94.1,734.4,94.1z"/>
					<path class="st3" d="M734.9,92.9l0.2-0.1C735,92.8,734.9,92.8,734.9,92.9z"/>
					<path class="st3" d="M735.3,91.9c0,0-0.1,0-0.1,0l0,0L735.3,91.9z"/>
					<path class="st3" d="M725.1,103.7C725.1,103.7,725.1,103.7,725.1,103.7C725,103.8,725.1,103.7,725.1,103.7z"/>
					<path class="st3" d="M729,100.8c0,0.1,0,0.1,0,0.2C729,101,729,100.9,729,100.8z"/>
					<polygon class="st3" points="720,105.2 720,105.2 719.9,105.2 					"/>
					<path class="st3" d="M728.7,101.1c0.1,0,0.2,0,0.2-0.1C728.8,101,728.8,101.1,728.7,101.1z"/>
					<path class="st3" d="M735.5,87.5L735.5,87.5C735.5,87.4,735.5,87.4,735.5,87.5L735.5,87.5z"/>
					<path class="st3" d="M735.5,87.4L735.5,87.4C735.4,87.4,735.4,87.4,735.5,87.4z"/>
					<path class="st3" d="M735.3,87.3l0.1,0.1C735.4,87.3,735.4,87.3,735.3,87.3z"/>
					<path class="st3" d="M735.5,88.9l0.1,0C735.6,88.9,735.6,88.9,735.5,88.9z"/>
					<path class="st3" d="M735.6,89.3c0-0.1,0.2-0.3,0.2-0.4l-0.1,0C735.8,88.9,735.4,89.2,735.6,89.3z"/>
					<path class="st3" d="M734.2,90.8l0.1-0.3c-0.1,0-0.3,0.1-0.3,0C733.7,90.8,734.3,90.4,734.2,90.8z"/>
					<path class="st3" d="M733.9,91.7c0-0.2-0.2,0-0.2-0.1C733.7,91.8,733.8,91.8,733.9,91.7z"/>
					<path class="st3" d="M730.7,97.8l-0.2-0.2C730.4,97.7,730.6,97.7,730.7,97.8z"/>
					<polygon class="st3" points="730.7,99.7 730.9,99.7 730.8,99.5 					"/>
					<polygon class="st3" points="728.9,98.9 728.9,98.8 728.8,99 					"/>
					<path class="st3" d="M718.3,102.9l0.1,0.3C718.5,103.2,718.5,102.8,718.3,102.9z"/>
					<path class="st3" d="M713.2,103.1c0-0.2-0.2-0.3-0.3-0.1C713.1,103,713.2,103.1,713.2,103.1z"/>
					<polygon class="st3" points="698.6,98.5 698.7,98.4 698.5,98.4 					"/>
				</g>
			</g>
		</g>
	</g>
</g>
</svg>
