<?xml version="1.0" encoding="utf-8"?>
<!-- Generator: Adobe Illustrator 20.1.0, SVG Export Plug-In . SVG Version: 6.00 Build 0)  -->
<svg version="1.1" id="Layer_1" xmlns="http://www.w3.org/2000/svg" xmlns:xlink="http://www.w3.org/1999/xlink" x="0px" y="0px"
	 viewBox="0 0 294.1 331.6" style="enable-background:new 0 0 294.1 331.6;" xml:space="preserve">
<style type="text/css">
	.st0{fill:#F15A24;}
	.st1{fill:none;stroke:#F15A24;stroke-width:2;stroke-miterlimit:10;}
	.st2{fill:none;stroke:#F15A24;stroke-width:0.75;stroke-miterlimit:10;}
</style>
<g>
	<path class="st0" d="M32.7,36.3v384.5H5V36.3H32.7 M34.7,34.3H3v388.5h31.7V34.3L34.7,34.3z"/>
</g>
<g>
	<path class="st0" d="M288.7,36.3v384.5H261V36.3H288.7 M290.7,34.3H259v388.5h31.7V34.3L290.7,34.3z"/>
</g>
<g>
	<path class="st0" d="M288.7,7.1v27.2H5V7.1H288.7 M290.7,5.1H3v31.2h287.7V5.1L290.7,5.1z"/>
</g>
<g>
	<path class="st0" d="M258.7,127.4v11.1H35v-11.1H258.7 M260.7,125.4H33v15.1h227.8V125.4L260.7,125.4z"/>
</g>
<line class="st1" x1="33" y1="233.4" x2="260.7" y2="233.4"/>
<line class="st1" x1="260.7" y1="248.5" x2="33" y2="248.5"/>
<circle class="st1" cx="91.3" cy="217.4" r="16.1"/>
<path class="st1" d="M94.7,217.4c4.1,0,8.3,0,12.4,0"/>
<path class="st1" d="M75.2,217.4c3.8,0,7.6,0,11.3,0"/>
<circle class="st1" cx="90.8" cy="217.4" r="4.1"/>
<ellipse class="st1" cx="222.6" cy="49.5" rx="19.7" ry="3.5"/>
<line class="st1" x1="203" y1="48.5" x2="203" y2="123.7"/>
<line class="st1" x1="242.3" y1="49.5" x2="242.3" y2="124.7"/>
<path class="st1" d="M203.2,123.3c4.3,1.5,10.9,3.3,19,3.3c8.7,0.1,15.6-1.8,20-3.3"/>
<circle class="st2" cx="209.2" cy="100.6" r="1.7"/>
<circle class="st2" cx="218.2" cy="100.6" r="1.7"/>
<circle class="st2" cx="228.2" cy="100.6" r="1.7"/>
<circle class="st2" cx="238.2" cy="100.6" r="1.7"/>
<circle class="st2" cx="209.2" cy="110.6" r="1.7"/>
<circle class="st2" cx="218.2" cy="110.6" r="1.7"/>
<circle class="st2" cx="228.2" cy="110.6" r="1.7"/>
<circle class="st2" cx="238.2" cy="110.6" r="1.7"/>
<circle class="st2" cx="209.2" cy="119.6" r="1.7"/>
<circle class="st2" cx="218.2" cy="119.6" r="1.7"/>
<circle class="st2" cx="228.2" cy="119.6" r="1.7"/>
<circle class="st2" cx="238.2" cy="119.6" r="1.7"/>
<path class="st1" d="M203,57.3c4.6,1.4,11.3,2.8,19.5,2.7c8.3-0.1,15.1-1.8,19.7-3.3"/>
<g>
	<path class="st0" d="M225.3,234.6h-57.6c-3.3,0-6-2.7-6-6v-57.6c0-3.3,2.7-6,6-6h57.6c3.3,0,6,2.7,6,6v57.6
		C231.3,231.9,228.6,234.6,225.3,234.6z M167.7,166.9c-2.2,0-4,1.8-4,4v57.6c0,2.2,1.8,4,4,4h57.6c2.2,0,4-1.8,4-4v-57.6
		c0-2.2-1.8-4-4-4H167.7z"/>
</g>
<g>
	<path class="st0" d="M174.6,180.3c0,1.1-0.8,1.6-2.3,1.6c-0.5,0-1-0.1-1.5-0.2l0.2-0.9c0.5,0.2,0.9,0.2,1.3,0.2c0.4,0,0.8,0,1-0.1
		c0.2-0.1,0.3-0.2,0.3-0.4c0-0.2-0.1-0.4-0.3-0.5c-0.2-0.1-0.5-0.3-1-0.5c-0.4-0.2-0.8-0.4-1-0.6c-0.3-0.3-0.4-0.6-0.4-1
		c0-0.5,0.2-0.9,0.5-1.1s0.9-0.4,1.5-0.4c0.5,0,1,0,1.4,0.1l-0.2,0.9c-0.4-0.1-0.8-0.2-1.2-0.2c-0.7,0-1,0.2-1,0.5
		c0,0.2,0.1,0.3,0.2,0.5c0.1,0.1,0.4,0.2,0.9,0.4c0.5,0.2,0.8,0.4,1.1,0.6C174.5,179.5,174.6,179.8,174.6,180.3z"/>
	<path class="st0" d="M180.8,180.9l0,0.9h-3.5c0-0.8,0.1-1.8,0.1-2.8c0-1,0-1.9-0.1-2.6h3.4l0,0.9c-0.8,0-1.6-0.1-2.3-0.1
		c0,0.4,0,0.8,0,1.4c0.6,0,1.2,0,1.9,0v0.9c-0.6,0-1.3,0-1.9,0c0,0.6,0,1.1,0,1.6C179.2,180.9,180,180.9,180.8,180.9z"/>
	<path class="st0" d="M187.7,176.4c0,0.2-0.3,1.1-1,2.7c-0.6,1.6-1,2.5-1,2.7h-1.1c0-0.2-0.3-1.1-0.9-2.7s-0.9-2.5-0.9-2.7h1.3
		c0,0.2,0.2,0.9,0.6,2.2c0.4,1.2,0.6,1.9,0.6,2.1h0.1c0-0.2,0.2-0.8,0.6-2s0.6-1.9,0.6-2.2H187.7z"/>
	<path class="st0" d="M193.6,180.9l0,0.9h-3.5c0-0.8,0.1-1.8,0.1-2.8c0-1,0-1.9-0.1-2.6h3.4l0,0.9c-0.8,0-1.6-0.1-2.3-0.1
		c0,0.4,0,0.8,0,1.4c0.6,0,1.2,0,1.9,0v0.9c-0.6,0-1.3,0-1.9,0c0,0.6,0,1.1,0,1.6C192,180.9,192.8,180.9,193.6,180.9z"/>
	<path class="st0" d="M200.7,181.8h-1c0-0.1-0.4-0.7-1.1-1.8c-0.8-1.1-1.3-1.9-1.4-2.4h-0.1c0.1,0.6,0.1,1.2,0.1,1.6
		c0,0.7,0,1.5,0.1,2.5h-1c0-0.9,0.1-1.8,0.1-2.8c0-1,0-1.9-0.1-2.6h1.2c0,0.1,0.3,0.7,1,1.8c0.7,1.1,1.1,1.8,1.3,2.2h0.1
		c-0.1-0.6-0.1-1.2-0.1-1.7c0-0.8,0-1.5-0.1-2.3h1c0,0.7-0.1,1.5-0.1,2.6C200.7,180,200.7,180.9,200.7,181.8z"/>
</g>
<g>
	<path class="st0" d="M188.2,222.3c0,0.9-0.3,1.6-0.8,2.1c-0.5,0.6-1.2,0.8-1.9,0.8c-0.7,0-1.3-0.3-1.8-0.8s-0.7-1.2-0.7-2
		c0-0.9,0.3-1.6,0.8-2.1c0.5-0.6,1.2-0.8,1.9-0.8c0.7,0,1.3,0.3,1.8,0.8C188,220.8,188.2,221.5,188.2,222.3z M187.1,222.4
		c0-0.6-0.1-1.1-0.4-1.4s-0.7-0.5-1.1-0.5c-0.4,0-0.7,0.2-1,0.5c-0.3,0.4-0.4,0.8-0.4,1.4c0,0.6,0.1,1,0.4,1.4
		c0.3,0.4,0.7,0.5,1.1,0.5c0.4,0,0.8-0.2,1-0.5C186.9,223.4,187.1,223,187.1,222.4z"/>
	<path class="st0" d="M194.8,224.1l-0.1,1c-0.4,0.1-0.8,0.1-1.2,0.1c-1,0-1.7-0.3-2.2-0.8c-0.5-0.5-0.7-1.2-0.7-1.9
		c0-0.8,0.3-1.5,0.8-2c0.5-0.6,1.3-0.9,2.2-0.9c0.3,0,0.7,0,1,0.1l-0.1,1c-0.3-0.1-0.6-0.2-0.9-0.2c-0.6,0-1,0.2-1.3,0.5
		c-0.3,0.4-0.4,0.8-0.4,1.3c0,0.5,0.2,1,0.5,1.4s0.8,0.6,1.4,0.6C194,224.3,194.4,224.2,194.8,224.1z"/>
	<path class="st0" d="M200.8,224.2l0,0.9h-3.5c0-0.8,0.1-1.7,0.1-2.8c0-1,0-1.9-0.1-2.6h1.2c0,0.6,0,1.5,0,2.6c0,0.8,0,1.5-0.1,2
		C199.2,224.3,200,224.2,200.8,224.2z"/>
	<path class="st0" d="M208.2,222.3c0,0.9-0.3,1.6-0.8,2.1c-0.5,0.6-1.2,0.8-1.9,0.8c-0.7,0-1.3-0.3-1.8-0.8s-0.7-1.2-0.7-2
		c0-0.9,0.3-1.6,0.8-2.1c0.5-0.6,1.2-0.8,1.9-0.8c0.7,0,1.3,0.3,1.8,0.8C207.9,220.8,208.2,221.5,208.2,222.3z M207,222.4
		c0-0.6-0.1-1.1-0.4-1.4s-0.7-0.5-1.1-0.5c-0.4,0-0.7,0.2-1,0.5c-0.3,0.4-0.4,0.8-0.4,1.4c0,0.6,0.1,1,0.4,1.4
		c0.3,0.4,0.7,0.5,1.1,0.5c0.4,0,0.8-0.2,1-0.5C206.9,223.4,207,223,207,222.4z"/>
	<path class="st0" d="M214.8,224.1l-0.1,1c-0.4,0.1-0.8,0.1-1.2,0.1c-1,0-1.7-0.3-2.2-0.8c-0.5-0.5-0.7-1.2-0.7-1.9
		c0-0.8,0.3-1.5,0.8-2c0.5-0.6,1.3-0.9,2.2-0.9c0.3,0,0.7,0,1,0.1l-0.1,1c-0.3-0.1-0.6-0.2-0.9-0.2c-0.6,0-1,0.2-1.3,0.5
		c-0.3,0.4-0.4,0.8-0.4,1.3c0,0.5,0.2,1,0.5,1.4s0.8,0.6,1.4,0.6C214,224.3,214.4,224.2,214.8,224.1z"/>
	<path class="st0" d="M221.7,225.1h-1.4c0-0.1-0.2-0.6-0.7-1.3c-0.5-0.8-0.9-1.2-1.1-1.2h-0.1c0,0.6,0,1.5,0,2.5h-1.2
		c0-0.8,0.1-1.8,0.1-2.8c0-1,0-1.9-0.1-2.6h1.2c0,0.8,0,1.5,0,2.2h0.1c0.1,0,0.4-0.3,0.9-1c0.5-0.7,0.7-1,0.7-1.1h1.2
		c0,0.1-0.3,0.4-0.8,1c-0.5,0.6-0.9,1-1.1,1.2v0.1c0.3,0.1,0.7,0.7,1.3,1.6C221.4,224.5,221.7,225,221.7,225.1z"/>
</g>
<g>
	<path class="st0" d="M80.4,109.4l-1,5.4h-3.6c-0.3,3-0.6,6.8-0.9,11.2h-6.2c0.3-1.9,0.7-5.7,1.4-11.2H58.2l-0.2-4.7
		c0-0.3,2.3-3.3,6.9-8.9c4.6-5.6,6.9-8.6,7-9.1h6.4c-0.4,2.5-1.1,8.3-2.1,17.5C77.5,109.7,78.9,109.6,80.4,109.4z M72.3,97.5H72
		c0,0.3-1.6,2.4-4.6,6.1s-4.5,5.7-4.6,5.9l0,0.3c1.9,0,4.5,0,7.8-0.1C71,107.6,71.6,103.5,72.3,97.5z"/>
	<path class="st0" d="M109.6,103c0,2.5-0.3,4.7-0.8,6.7c-0.6,2-1.4,3.6-2.4,5c-1.1,1.4-2.4,2.4-3.9,3.1c-1.5,0.7-3.3,1.1-5.3,1.1
		c-3,0-5.3-0.9-6.9-2.7s-2.3-4.5-2.3-7.9c0-1.4,0.1-2.8,0.3-4.2c0.2-1.4,0.5-2.7,1-3.9c0.4-1.2,1-2.4,1.7-3.4c0.7-1,1.5-2,2.4-2.7
		c0.9-0.8,2-1.4,3.2-1.8c1.2-0.4,2.6-0.6,4.1-0.6c1.5,0,2.8,0.3,3.9,0.8c1.1,0.5,2.1,1.3,2.8,2.3c0.8,1,1.3,2.2,1.7,3.6
		C109.4,99.7,109.6,101.3,109.6,103z M103.8,103.6c0-0.8,0-1.6-0.1-2.5s-0.3-1.6-0.6-2.4c-0.3-0.7-0.7-1.3-1.3-1.8
		c-0.6-0.5-1.3-0.7-2.2-0.7c-1,0-1.9,0.3-2.6,1c-0.7,0.7-1.3,1.6-1.7,2.6c-0.4,1.1-0.8,2.3-1,3.7c-0.2,1.4-0.3,2.7-0.3,4.1
		c0,2.2,0.3,3.8,1,4.9s1.8,1.6,3.2,1.6c1,0,1.9-0.3,2.6-0.9c0.7-0.6,1.3-1.4,1.7-2.4c0.4-1,0.8-2.1,1-3.4
		C103.7,106.2,103.8,104.9,103.8,103.6z"/>
	<path class="st0" d="M138.4,109.4l-1,5.4h-3.6c-0.3,3-0.6,6.8-0.9,11.2h-6.2c0.3-1.9,0.7-5.7,1.4-11.2h-11.7l-0.2-4.7
		c0-0.3,2.3-3.3,6.9-8.9c4.6-5.6,6.9-8.6,7-9.1h6.4c-0.4,2.5-1.1,8.3-2.1,17.5C135.6,109.7,137,109.6,138.4,109.4z M130.3,97.5H130
		c0,0.3-1.6,2.4-4.6,6.1s-4.5,5.7-4.6,5.9l0,0.3c1.9,0,4.5,0,7.8-0.1C129,107.6,129.6,103.5,130.3,97.5z"/>
</g>
</svg>
